<?xml version="1.0" encoding="utf-8"?>
<!-- Generator: Adobe Illustrator 23.0.1, SVG Export Plug-In . SVG Version: 6.00 Build 0)  -->
<svg version="1.1" id="Layer_1" xmlns="http://www.w3.org/2000/svg" xmlns:xlink="http://www.w3.org/1999/xlink" x="0px" y="0px"
	 viewBox="0 0 103.6 79.4" style="enable-background:new 0 0 103.6 79.4;" xml:space="preserve">
<style type="text/css">
	.st0{fill-rule:evenodd;clip-rule:evenodd;fill:#ED3D8E;}
	.st1{fill-rule:evenodd;clip-rule:evenodd;fill:#4B5DA9;}
	.st2{fill-rule:evenodd;clip-rule:evenodd;fill:#FFD430;}
	.st3{fill-rule:evenodd;clip-rule:evenodd;fill:#0090D0;}
</style>
<g>
	<g transform="translate(13.000000, 25.000000)">
		<path id="Fill-2" class="st0" d="M66.8-17.3l3.3-4.2V-25H59v4.1h5.4l-3,3.6l0,3.2h2.5c1.8,0,2.6,0.9,2.6,2.1s-0.8,2.1-2.6,2.1
			l-0.1,0h-0.1h-5.4h-0.5v4.2h5.9v0l0.2,0c3.7,0,6.9-2.2,6.9-6.4C70.8-14.6,69.1-16.5,66.8-17.3"/>
		<polygon id="Fill-4" class="st0" points="14.1,-5.5 54,-5.5 54,-17.1 14.1,-17.1 		"/>
		<polygon id="Fill-6" class="st1" points="14.1,-5.5 25.7,-5.5 25.7,-17.1 14.1,-17.1 		"/>
		<polygon id="Fill-7" class="st2" points="14.1,15 54,15 54,3.4 14.1,3.4 		"/>
		<polygon id="Fill-8" class="st1" points="14.1,15 25.7,15 25.7,3.4 14.1,3.4 		"/>
		<polygon id="Fill-9" class="st3" points="14.1,35.5 54,35.5 54,24 14.1,24 		"/>
		<polygon id="Fill-10" class="st1" points="14.1,35.5 25.7,35.5 25.7,24 14.1,24 		"/>
		<path id="Fill-11" class="st3" d="M-13,54.3h5V53h-3.5v-5.6H-13V54.3z M-5.5,53v-1.6h3.2v-1.2h-3.2v-1.5h3.6v-1.3h-5.2v6.9h5.3V53
			H-5.5z M4.7,54.3h1.7l-3.1-6.9H1.7l-3.1,6.9h1.6l0.6-1.5h3.2L4.7,54.3z M1.4,51.6L2.5,49l1.1,2.6H1.4z M13.2,54.3l-1.5-2.2
			c0.5-0.2,0.8-0.5,1-0.9c0.2-0.4,0.4-0.8,0.4-1.3s-0.1-1-0.4-1.3s-0.6-0.7-1-0.9c-0.4-0.2-1-0.3-1.6-0.3h-3v6.9h1.6v-1.9h1.4h0.1
			l1.3,1.9H13.2z M11.4,49.9c0,0.4-0.1,0.7-0.4,0.9c-0.2,0.2-0.6,0.3-1.1,0.3H8.7v-2.4H10c0.5,0,0.8,0.1,1.1,0.3
			C11.3,49.2,11.4,49.5,11.4,49.9L11.4,49.9z M19.1,47.4v4.2l-3.4-4.2h-1.3v6.9h1.6v-4.2l3.4,4.2h1.3v-6.9H19.1z M26.5,54.3h1.6
			v-5.6h2.2v-1.3h-6v1.3h2.2V54.3z M34.4,54.4c0.7,0,1.4-0.2,1.9-0.5c0.6-0.3,1-0.7,1.3-1.3s0.5-1.1,0.5-1.8c0-0.7-0.2-1.3-0.5-1.8
			c-0.3-0.5-0.8-1-1.3-1.3c-0.6-0.3-1.2-0.5-1.9-0.5c-0.7,0-1.4,0.2-1.9,0.5c-0.6,0.3-1,0.7-1.3,1.3c-0.3,0.5-0.5,1.2-0.5,1.8
			c0,0.7,0.2,1.3,0.5,1.8c0.3,0.5,0.8,1,1.3,1.3C33,54.3,33.7,54.4,34.4,54.4L34.4,54.4z M34.4,53.1c-0.4,0-0.8-0.1-1.1-0.3
			c-0.3-0.2-0.6-0.4-0.8-0.8c-0.2-0.3-0.3-0.7-0.3-1.1c0-0.4,0.1-0.8,0.3-1.1c0.2-0.3,0.4-0.6,0.8-0.8c0.3-0.2,0.7-0.3,1.1-0.3
			c0.4,0,0.8,0.1,1.1,0.3c0.3,0.2,0.6,0.4,0.8,0.8c0.2,0.3,0.3,0.7,0.3,1.1c0,0.4-0.1,0.8-0.3,1.1c-0.2,0.3-0.4,0.6-0.8,0.8
			C35.1,53,34.8,53.1,34.4,53.1L34.4,53.1z M44.4,54.4c0.6,0,1.2-0.1,1.6-0.3c0.4-0.2,0.8-0.4,1-0.8c0.2-0.3,0.3-0.7,0.3-1.1
			c0-0.5-0.1-0.8-0.4-1.1c-0.2-0.3-0.5-0.5-0.9-0.6c-0.3-0.1-0.8-0.2-1.3-0.4c-0.5-0.1-0.9-0.2-1.1-0.3c-0.2-0.1-0.4-0.3-0.4-0.5
			s0.1-0.4,0.3-0.6c0.2-0.1,0.5-0.2,1-0.2c0.6,0,1.3,0.2,1.9,0.5l0.5-1.2c-0.3-0.2-0.7-0.3-1.1-0.5c-0.4-0.1-0.8-0.2-1.3-0.2
			c-0.6,0-1.2,0.1-1.6,0.3c-0.4,0.2-0.8,0.4-1,0.8c-0.2,0.3-0.3,0.7-0.3,1.1c0,0.5,0.1,0.8,0.4,1.1c0.2,0.3,0.5,0.5,0.9,0.6
			c0.3,0.1,0.8,0.2,1.3,0.4c0.3,0.1,0.6,0.2,0.8,0.2c0.2,0.1,0.4,0.2,0.5,0.3c0.1,0.1,0.2,0.2,0.2,0.4c0,0.2-0.1,0.4-0.3,0.5
			c-0.2,0.1-0.6,0.2-1,0.2c-0.4,0-0.8-0.1-1.2-0.2c-0.4-0.1-0.8-0.3-1.1-0.5l-0.5,1.2c0.3,0.2,0.7,0.4,1.2,0.6
			C43.3,54.3,43.8,54.4,44.4,54.4L44.4,54.4z M51.5,54.4c1,0,1.8-0.3,2.3-0.8c0.5-0.5,0.8-1.3,0.8-2.3v-3.9H53v3.8
			c0,0.6-0.1,1.1-0.4,1.4c-0.3,0.3-0.6,0.4-1.1,0.4c-1,0-1.5-0.6-1.5-1.8v-3.8h-1.6v3.9c0,1,0.3,1.8,0.8,2.3
			C49.7,54.1,50.5,54.4,51.5,54.4L51.5,54.4z M59.5,54.4c0.6,0,1.1-0.1,1.6-0.3c0.5-0.2,0.9-0.5,1.2-0.9l-1-0.9
			c-0.5,0.5-1,0.8-1.7,0.8c-0.4,0-0.8-0.1-1.1-0.3c-0.3-0.2-0.6-0.4-0.8-0.8c-0.2-0.3-0.3-0.7-0.3-1.1c0-0.4,0.1-0.8,0.3-1.1
			c0.2-0.3,0.4-0.6,0.8-0.8c0.3-0.2,0.7-0.3,1.1-0.3c0.7,0,1.3,0.3,1.7,0.8l1-0.9c-0.3-0.4-0.7-0.7-1.2-0.9c-0.5-0.2-1-0.3-1.6-0.3
			c-0.7,0-1.3,0.2-1.9,0.5c-0.6,0.3-1,0.7-1.3,1.3c-0.3,0.5-0.5,1.2-0.5,1.8s0.2,1.3,0.5,1.8c0.3,0.5,0.8,1,1.3,1.3
			C58.1,54.3,58.8,54.4,59.5,54.4L59.5,54.4z M66.5,54.4c0.6,0,1.1-0.1,1.6-0.3c0.5-0.2,0.9-0.5,1.2-0.9l-1-0.9
			c-0.5,0.5-1,0.8-1.7,0.8c-0.4,0-0.8-0.1-1.1-0.3c-0.3-0.2-0.6-0.4-0.8-0.8c-0.2-0.3-0.3-0.7-0.3-1.1c0-0.4,0.1-0.8,0.3-1.1
			c0.2-0.3,0.4-0.6,0.8-0.8c0.3-0.2,0.7-0.3,1.1-0.3c0.7,0,1.3,0.3,1.7,0.8l1-0.9c-0.3-0.4-0.7-0.7-1.2-0.9c-0.5-0.2-1-0.3-1.6-0.3
			c-0.7,0-1.3,0.2-1.9,0.5c-0.6,0.3-1,0.7-1.3,1.3c-0.3,0.5-0.5,1.2-0.5,1.8s0.2,1.3,0.5,1.8c0.3,0.5,0.8,1,1.3,1.3
			C65.2,54.3,65.8,54.4,66.5,54.4L66.5,54.4z M72,53v-1.6h3.2v-1.2H72v-1.5h3.6v-1.3h-5.2v6.9h5.3V53H72z M78.6,53v-1.6h3.2v-1.2
			h-3.2v-1.5h3.6v-1.3H77v6.9h5.3V53H78.6z M83.6,54.3h3.1c0.7,0,1.4-0.1,2-0.4c0.6-0.3,1-0.7,1.3-1.2c0.3-0.5,0.5-1.1,0.5-1.8
			c0-0.7-0.2-1.3-0.5-1.8c-0.3-0.5-0.8-0.9-1.3-1.2c-0.6-0.3-1.2-0.4-2-0.4h-3.1V54.3z M85.2,53v-4.3h1.5c0.7,0,1.2,0.2,1.6,0.6
			c0.4,0.4,0.6,0.9,0.6,1.6c0,0.7-0.2,1.2-0.6,1.6c-0.4,0.4-1,0.6-1.6,0.6H85.2z"/>
	</g>
</g>
</svg>
